# xmcd
#
# Track frame offsets: 
#        150
#        11795
#        24010
#        35991
#        54082
#        65186
#        76347
#        91997
#        104588
#        119611
#        143034
#        160241
#        176956
#        193761
#        211660
#        228315
#        241225
#        253569
#        271293
#        285387
#        305090
#        320939
#        329929
#        343727
#
# Disc length: 4784 seconds
#
# Revision: 0
# Processed by: cddbd v1.5.1PL0 Copyright (c) Steve Scherf et al.
# Submitted via: ExactAudioCopy v0.95a5
#
DISCID=6c12ae18
DTITLE=Александр Дольский - Барды
DYEAR=1900
DGENRE=Ballad
TTITLE0=Посмотри мне в глаза
TTITLE1=Голубая мечта
TTITLE2=Рецепты коктелей
TTITLE3=Там, где сердце
TTITLE4=Две птицы
TTITLE5=Баллада о безвести пропавшем
TTITLE6=Маленький принц
TTITLE7=Тайная вечеря
TTITLE8=Господа офицеры
TTITLE9=Алкаши
TTITLE10=Пастораль
TTITLE11=Уважаемая совесть
TTITLE12=Земля
TTITLE13=Уроки музыки
TTITLE14=Душа и тело
TTITLE15=Ожидание
TTITLE16=Старые паруса
TTITLE17=Семейная молитва
TTITLE18=Время и мы
TTITLE19=Старики
TTITLE20=Надежда
TTITLE21=Беседа
TTITLE22=От прощанья до прощанья
TTITLE23=Зелёный камень
EXTD=
EXTT0=
EXTT1=
EXTT2=
EXTT3=
EXTT4=
EXTT5=
EXTT6=
EXTT7=
EXTT8=
EXTT9=
EXTT10=
EXTT11=
EXTT12=
EXTT13=
EXTT14=
EXTT15=
EXTT16=
EXTT17=
EXTT18=
EXTT19=
EXTT20=
EXTT21=
EXTT22=
EXTT23=
PLAYORDER=
